<svg width="13" height="15" viewBox="0 0 13 15" fill="none" xmlns="http://www.w3.org/2000/svg">
<path d="M5.99996 9.33317V10.6665C4.93909 10.6665 3.92168 11.0879 3.17153 11.8381C2.42139 12.5882 1.99996 13.6056 1.99996 14.6665H0.666626C0.666626 13.252 1.22853 11.8955 2.22872 10.8953C3.22892 9.89507 4.58547 9.33317 5.99996 9.33317V9.33317ZM5.99996 8.6665C3.78996 8.6665 1.99996 6.8765 1.99996 4.6665C1.99996 2.4565 3.78996 0.666504 5.99996 0.666504C8.20996 0.666504 9.99996 2.4565 9.99996 4.6665C9.99996 6.8765 8.20996 8.6665 5.99996 8.6665ZM5.99996 7.33317C7.47329 7.33317 8.66663 6.13984 8.66663 4.6665C8.66663 3.19317 7.47329 1.99984 5.99996 1.99984C4.52663 1.99984 3.33329 3.19317 3.33329 4.6665C3.33329 6.13984 4.52663 7.33317 5.99996 7.33317ZM12 11.3332H12.6666V14.6665H7.33329V11.3332H7.99996V10.6665C7.99996 10.1361 8.21067 9.62736 8.58575 9.25229C8.96082 8.87722 9.46953 8.6665 9.99996 8.6665C10.5304 8.6665 11.0391 8.87722 11.4142 9.25229C11.7892 9.62736 12 10.1361 12 10.6665V11.3332ZM10.6666 11.3332V10.6665C10.6666 10.4897 10.5964 10.3201 10.4714 10.1951C10.3463 10.0701 10.1768 9.99984 9.99996 9.99984C9.82315 9.99984 9.65358 10.0701 9.52855 10.1951C9.40353 10.3201 9.33329 10.4897 9.33329 10.6665V11.3332H10.6666Z" fill="black"/>
</svg>
