  <svg width="18" height="18" viewBox="0 0 18 18" fill="none" xmlns="http://www.w3.org/2000/svg">
             <path d="M16.5 15H1.49998V13.5H2.24998V8.27325C2.24998 4.53225 5.27249 1.5 8.99999 1.5C12.7275 1.5 15.75 4.53225 15.75 8.27325V13.5H16.5V15ZM3.74998 13.5H14.25V8.27325C14.25 5.361 11.8995 3 8.99999 3C6.10049 3 3.74998 5.361 3.74998 8.27325V13.5ZM7.12499 15.75H10.875C10.875 16.2473 10.6774 16.7242 10.3258 17.0758C9.97418 17.4275 9.49727 17.625 8.99999 17.625C8.5027 17.625 8.02579 17.4275 7.67416 17.0758C7.32253 16.7242 7.12499 16.2473 7.12499 15.75Z" fill="#333333"/>
        </svg>