     <svg width="28" height="28" viewBox="0 0 28 28" fill="none" xmlns="http://www.w3.org/2000/svg">
                <path d="M21 8.16667H24.5C24.8094 8.16667 25.1061 8.28958 25.3249 8.50838C25.5437 8.72717 25.6666 9.02391 25.6666 9.33333V23.3333C25.6666 23.6428 25.5437 23.9395 25.3249 24.1583C25.1061 24.3771 24.8094 24.5 24.5 24.5H3.49998C3.19056 24.5 2.89381 24.3771 2.67502 24.1583C2.45623 23.9395 2.33331 23.6428 2.33331 23.3333V4.66667C2.33331 4.35725 2.45623 4.0605 2.67502 3.84171C2.89381 3.62292 3.19056 3.5 3.49998 3.5H21V8.16667ZM4.66665 10.5V22.1667H23.3333V10.5H4.66665ZM4.66665 5.83333V8.16667H18.6666V5.83333H4.66665ZM17.5 15.1667H21V17.5H17.5V15.1667Z" fill="#CCCCCC"/>
            </svg>

