<svg width="16" height="16" viewBox="0 0 16 16" fill="none" xmlns="http://www.w3.org/2000/svg">
<path d="M3.33329 1.3335H12.6666C12.8434 1.3335 13.013 1.40373 13.138 1.52876C13.2631 1.65378 13.3333 1.82335 13.3333 2.00016V14.7622C13.3334 14.8218 13.3175 14.8803 13.2872 14.9317C13.257 14.983 13.2135 15.0254 13.1614 15.0542C13.1092 15.0831 13.0503 15.0974 12.9907 15.0958C12.9311 15.0941 12.8731 15.0765 12.8226 15.0448L7.99996 12.0202L3.17729 15.0442C3.12687 15.0758 3.06888 15.0934 3.00936 15.0951C2.94984 15.0968 2.89095 15.0825 2.83882 15.0537C2.7867 15.0249 2.74323 14.9827 2.71295 14.9314C2.68267 14.8802 2.66667 14.8217 2.66663 14.7622V2.00016C2.66663 1.82335 2.73686 1.65378 2.86189 1.52876C2.98691 1.40373 3.15648 1.3335 3.33329 1.3335Z" fill="black"/>
</svg>
