<svg width="18" height="18" viewBox="0 0 18 18" fill="none" xmlns="http://www.w3.org/2000/svg">
<path d="M14.0259 12.8473L17.595 16.4157L16.4159 17.5948L12.8475 14.0257C11.5198 15.09 9.86835 15.6689 8.16669 15.6665C4.02669 15.6665 0.666687 12.3065 0.666687 8.1665C0.666687 4.0265 4.02669 0.666504 8.16669 0.666504C12.3067 0.666504 15.6667 4.0265 15.6667 8.1665C15.6691 9.86817 15.0902 11.5196 14.0259 12.8473ZM12.3542 12.229C13.4118 11.1414 14.0024 9.68353 14 8.1665C14 4.94317 11.3892 2.33317 8.16669 2.33317C4.94335 2.33317 2.33335 4.94317 2.33335 8.1665C2.33335 11.389 4.94335 13.9998 8.16669 13.9998C9.68371 14.0022 11.1416 13.4116 12.2292 12.354L12.3542 12.229Z" fill="#808080"/>
</svg>
