<svg width="64" height="21" viewBox="0 0 64 21" fill="none" xmlns="http://www.w3.org/2000/svg">
<path d="M27.7333 20.6972H22.5488L25.7916 0.368652H30.9757L27.7333 20.6972Z" fill="#00579F"/>
<path d="M46.5275 0.865467C45.5049 0.454148 43.883 0 41.8775 0C36.7577 0 33.1523 2.768 33.1302 6.72541C33.0877 9.64517 35.7115 11.2669 37.6739 12.2404C39.6797 13.2352 40.3616 13.8846 40.3616 14.7713C40.3412 16.1332 38.7408 16.7609 37.2481 16.7609C35.1783 16.7609 34.0692 16.4373 32.3838 15.6796L31.7011 15.3548L30.9756 19.9181C32.1915 20.4798 34.4318 20.9782 36.7577 21C42.1976 21 45.7391 18.2748 45.7811 14.0576C45.8017 11.7434 44.4163 9.97026 41.4293 8.5213C39.616 7.59116 38.5055 6.96398 38.5055 6.01228C38.5267 5.1471 39.4447 4.26094 41.4916 4.26094C43.1771 4.21753 44.4154 4.62828 45.3535 5.03931L45.8224 5.25518L46.5275 0.865467V0.865467Z" fill="#00579F"/>
<path d="M53.4177 13.4955C53.8446 12.3277 55.4875 7.80776 55.4875 7.80776C55.466 7.85116 55.9136 6.61835 56.1696 5.86154L56.532 7.61316C56.532 7.61316 57.5137 12.4792 57.7269 13.4955C56.9167 13.4955 54.4417 13.4955 53.4177 13.4955ZM59.8172 0.368652H55.807C54.5704 0.368652 53.6309 0.735994 53.0973 2.05532L45.3965 20.6969H50.8364C50.8364 20.6969 51.732 18.1879 51.9245 17.6475C52.5212 17.6475 57.8131 17.6475 58.5809 17.6475C58.7297 18.3612 59.1995 20.6969 59.1995 20.6969H63.9998L59.8172 0.368652V0.368652Z" fill="#00579F"/>
<path d="M18.2184 0.368652L13.1411 14.2308L12.5863 11.4194C11.6476 8.17539 8.70371 4.65086 5.41846 2.89837L10.0691 20.6757H15.5515L23.7005 0.368652H18.2184V0.368652Z" fill="#00579F"/>
<path d="M8.42661 0.368652H0.0853345L0 0.779397C6.50671 2.46635 10.816 6.5327 12.5865 11.4202L10.7732 2.07745C10.4746 0.77911 9.55722 0.41148 8.42661 0.368652Z" fill="#FAA61A"/>
</svg>
